<?xml version="1.0" standalone="no"?>
<!DOCTYPE svg PUBLIC "-//W3C//DTD SVG 20010904//EN"
 "http://www.w3.org/TR/2001/REC-SVG-20010904/DTD/svg10.dtd">
<svg version="1.0" xmlns="http://www.w3.org/2000/svg"
 width="459.000000pt" height="376.000000pt" viewBox="0 0 459.000000 376.000000"
 preserveAspectRatio="xMidYMid meet">

<g transform="translate(0.000000,376.000000) scale(0.100000,-0.100000)"
fill="#000000" stroke="none">
<path d="M1410 1718 c1 -2 38 -109 84 -238 l83 -235 99 -6 c167 -11 329 -54
529 -140 l92 -39 65 29 c93 42 279 105 372 126 44 10 124 20 179 24 l100 6 84
235 c45 129 83 236 83 238 0 3 -70 -7 -136 -19 -57 -11 -43 16 -113 -215 l-31
-101 -73 -7 c-150 -15 -315 -65 -467 -141 l-65 -33 -45 24 c-140 73 -345 136
-487 150 l-72 7 -15 46 c-8 25 -29 93 -46 151 -18 58 -33 106 -34 108 -3 2
-62 13 -153 28 -18 3 -33 4 -33 2z"/>
<path d="M2355 1599 c-4 -6 -5 -12 -2 -15 2 -3 7 2 10 11 7 17 1 20 -8 4z"/>
<path d="M2891 1574 c0 -11 3 -14 6 -6 3 7 2 16 -1 19 -3 4 -6 -2 -5 -13z"/>
<path d="M2210 1576 c0 -2 8 -10 18 -17 15 -13 16 -12 3 4 -13 16 -21 21 -21
13z"/>
<path d="M2250 1521 c5 -11 15 -23 21 -27 6 -3 3 5 -6 20 -20 30 -30 35 -15 7z"/>
<path d="M1710 1513 c0 -5 5 -25 11 -45 l10 -38 57 1 57 2 -52 6 c-61 8 -63 9
-66 50 -1 17 -5 31 -9 31 -5 0 -8 -3 -8 -7z"/>
<path d="M2863 1489 c-7 -18 -11 -35 -8 -37 6 -6 27 48 23 60 -2 5 -9 -6 -15
-23z"/>
<path d="M1850 1429 c0 -5 9 -9 20 -9 11 0 20 2 20 4 0 2 -9 6 -20 9 -11 3
-20 1 -20 -4z"/>
<path d="M2715 1430 c-19 -8 -19 -9 2 -9 12 -1 25 4 28 9 7 12 -2 12 -30 0z"/>
<path d="M2783 1433 c15 -2 39 -2 55 0 15 2 2 4 -28 4 -30 0 -43 -2 -27 -4z"/>
<path d="M1920 1420 c-9 -6 -10 -10 -3 -10 6 0 15 5 18 10 8 12 4 12 -15 0z"/>
<path d="M2067 1423 c-2 -5 -3 -16 -2 -25 2 -10 -2 -18 -8 -18 -7 0 44 -27
113 -61 l125 -60 92 45 c51 25 97 46 103 46 5 0 10 5 10 11 0 5 5 7 10 4 6 -3
10 -2 10 4 0 5 -4 13 -10 16 -5 3 -10 1 -10 -5 0 -13 -61 -40 -90 -40 -12 0
-19 4 -16 9 6 10 -91 7 -101 -3 -4 -3 0 -6 8 -7 25 -1 47 -7 64 -17 16 -8 15
-10 -4 -15 -12 -3 -19 -1 -15 4 3 5 -2 9 -10 9 -10 0 -13 -6 -10 -15 5 -11 -1
-15 -22 -14 -64 3 -89 13 -88 37 1 13 -1 21 -4 18 -2 -3 -13 -1 -24 5 -14 7
-23 7 -34 -2 -8 -7 -14 -7 -14 -1 0 5 -15 13 -34 16 -30 6 -33 10 -31 36 3 30
0 37 -8 23z m123 -83 c13 -8 13 -10 -2 -10 -9 0 -20 5 -23 10 -8 13 5 13 25 0z
m200 -5 c14 -16 10 -18 -14 -9 -9 3 -16 10 -16 15 0 14 16 11 30 -6z"/>
<path d="M1970 1406 c14 -7 36 -16 50 -20 19 -5 16 -2 -10 13 -19 11 -42 20
-50 20 -8 0 -4 -6 10 -13z"/>
<path d="M2605 1407 c8 -4 29 -4 47 1 32 9 31 9 -14 8 -28 0 -41 -4 -33 -9z"/>
<path d="M2555 1390 c-3 -5 -1 -10 4 -10 6 0 11 5 11 10 0 6 -2 10 -4 10 -3 0
-8 -4 -11 -10z"/>
</g>
</svg>
